<svg width="25" height="25" viewBox="0 0 25 25" fill="none" xmlns="http://www.w3.org/2000/svg">
<g id="Icon">
<mask id="mask0_939_2299" style="mask-type:alpha" maskUnits="userSpaceOnUse" x="0" y="0" width="25" height="25">
<rect id="Bounding box" x="0.5" y="0.771484" width="24" height="24" fill="#D9D9D9"/>
</mask>
<g mask="url(#mask0_939_2299)">
<path id="autorenew" d="M5.6 16.8215C5.23333 16.1882 4.95833 15.5382 4.775 14.8715C4.59167 14.2048 4.5 13.5215 4.5 12.8215C4.5 10.5882 5.275 8.68815 6.825 7.12148C8.375 5.55482 10.2667 4.77148 12.5 4.77148H12.675L11.075 3.17148L12.475 1.77148L16.475 5.77148L12.475 9.77148L11.075 8.37148L12.675 6.77148H12.5C10.8333 6.77148 9.41667 7.35898 8.25 8.53398C7.08333 9.70898 6.5 11.1382 6.5 12.8215C6.5 13.2548 6.55 13.6798 6.65 14.0965C6.75 14.5132 6.9 14.9215 7.1 15.3215L5.6 16.8215ZM12.525 23.7715L8.525 19.7715L12.525 15.7715L13.925 17.1715L12.325 18.7715H12.5C14.1667 18.7715 15.5833 18.184 16.75 17.009C17.9167 15.834 18.5 14.4048 18.5 12.7215C18.5 12.2882 18.45 11.8632 18.35 11.4465C18.25 11.0298 18.1 10.6215 17.9 10.2215L19.4 8.72148C19.7667 9.35482 20.0417 10.0048 20.225 10.6715C20.4083 11.3382 20.5 12.0215 20.5 12.7215C20.5 14.9548 19.725 16.8548 18.175 18.4215C16.625 19.9882 14.7333 20.7715 12.5 20.7715H12.325L13.925 22.3715L12.525 23.7715Z" fill="#CCC6C4"/>
</g>
</g>
</svg>
