<svg width="30" height="30" viewBox="0 0 30 30" fill="none" xmlns="http://www.w3.org/2000/svg">
<circle cx="15" cy="15" r="15" fill="#FF0000"/>
<path fill-rule="evenodd" clip-rule="evenodd" d="M19.2042 10.0001C21.8335 10.0001 23.9876 12.0259 24.1919 14.6001L25 14.6001C24.7895 9.2628 20.3943 4.99997 15.0001 4.99997C11.4565 4.99997 8.34384 6.83975 6.56555 9.61531C5.63697 11.0646 5.07225 12.7691 5 14.6001L14.2167 14.6001C14.4209 12.0259 16.575 10.0001 19.2042 10.0001Z" fill="#C1C1C1"/>
<path fill-rule="evenodd" clip-rule="evenodd" d="M24.1919 15.4002C23.9876 17.9743 21.8335 20.0001 19.2042 20.0001C16.575 20.0001 14.4209 17.9743 14.2167 15.4002L5 15.4002C5.21075 20.7374 9.60614 25 15.0001 25C20.3941 25 24.7894 20.7374 25 15.4002L24.1919 15.4002Z" fill="white"/>
</svg>
