<svg width="30" height="30" viewBox="0 0 30 30" fill="none" xmlns="http://www.w3.org/2000/svg">
<g clip-path="url(#clip0_8_836)">
<rect width="30" height="30" rx="15" fill="#FF3E3E"/>
<path fill-rule="evenodd" clip-rule="evenodd" d="M16.7561 23.4375C18.1293 23.4375 19.2966 22.9818 20.2503 22.0705C21.12 21.2637 21.5625 20.2851 21.5625 19.1272C21.5625 17.9694 21.1276 16.9908 20.2503 16.184L20.0519 15.9898L13.5899 22.3618C14.4826 23.0789 15.5354 23.4375 16.7561 23.4375ZM19.083 14.9888L19.2585 14.8245L20.6928 13.4126C21.2726 12.6955 21.5625 11.8588 21.5625 10.8952C21.5625 9.78212 21.1734 8.83342 20.3952 8.04905L9.60747 18.679L12.5295 21.4504L19.083 14.9888ZM12.3769 8.54955L5.625 15.1457L8.51649 17.9768L15.0853 11.2986L12.3769 8.54955ZM19.0677 7.19746C18.343 6.77913 17.5266 6.5625 16.6035 6.5625C15.4438 6.5625 14.4368 6.89866 13.5976 7.57097L16.1457 10.0361L19.0677 7.19746Z" fill="white"/>
</g>
<defs>
<clipPath id="clip0_8_836">
<rect width="30" height="30" rx="15" fill="white"/>
</clipPath>
</defs>
</svg>
