<svg width="100" height="40" viewBox="0 0 100 40" fill="none" xmlns="http://www.w3.org/2000/svg">
  <rect width="100" height="40" rx="8" fill="#1976D2"/>
  <circle cx="35" cy="20" r="8" fill="#EB001B"/>
  <circle cx="50" cy="20" r="8" fill="#F79E1B" fill-opacity="0.7"/>
  <path d="M15 12h3l2 5v-5h2v16h-2v-5l-2 5h-3l3-8-3-8zm8 0h3v13h3v3h-9v-3h3V15h-3v-3zm8 0h3.5c2 0 3.5 1.5 3.5 3.5 0 1-0.5 2-1.5 2.5 1 0.5 1.5 1.5 1.5 2.5 0 2-1.5 3.5-3.5 3.5H31V12zm3 6h0.5c0.5 0 1-0.5 1-1s-0.5-1-1-1H34v2zm0 4h0.5c0.5 0 1-0.5 1-1s-0.5-1-1-1H34v2zm25-10h3v13h3v3h-9v-3h3V15h-3v-3zm8 0h3l3 16h-3l-0.5-2h-3l-0.5 2h-3l3-16zm1.5 4l-1 8h2l-1-8zm8-4h3c2 0 3.5 1.5 3.5 3.5v9c0 2-1.5 3.5-3.5 3.5h-3V12zm3 13c0.5 0 1-0.5 1-1v-9c0-0.5-0.5-1-1-1v11z" fill="white"/>
</svg>