<svg width="100" height="40" viewBox="0 0 100 40" fill="none" xmlns="http://www.w3.org/2000/svg">
  <rect width="100" height="40" rx="8" fill="#FF5722"/>
  <path d="M15 12h3l3 10 3-10h3l-4.5 16h-3L15 12zm13 0h3v16h-3V12zm8 0h3c2.5 0 4.5 2 4.5 4.5S41.5 21 39 21h-3v7h-3V12zm3 6h0c1 0 1.5-.5 1.5-1.5S40 15 39 15h0v3zm8-6h3c2.5 0 4.5 2 4.5 4.5S50.5 21 48 21h-3v7h-3V12zm3 6h0c1 0 1.5-.5 1.5-1.5S49 15 48 15h0v3zm8-6h3.5c2 0 3.5 1.5 3.5 3.5s-1.5 3.5-3.5 3.5c1 0 2 1 2 2.5s-1 2.5-2 2.5H56V12zm3 6h0.5c0.5 0 1-0.5 1-1s-0.5-1-1-1H59v2zm0 4h0.5c0.5 0 1-0.5 1-1s-0.5-1-1-1H59v2z" fill="white"/>
</svg>